<?xml version="1.0" standalone="no"?>
<!DOCTYPE svg PUBLIC "-//W3C//DTD SVG 20010904//EN"
 "http://www.w3.org/TR/2001/REC-SVG-20010904/DTD/svg10.dtd">
<svg version="1.0" xmlns="http://www.w3.org/2000/svg"
 width="2000.000000pt" height="2000.000000pt" viewBox="0 0 2000.000000 2000.000000"
 preserveAspectRatio="xMidYMid meet">
<metadata>
Created by potrace 1.14, written by Peter Selinger 2001-2017
</metadata>
<g transform="translate(0.000000,2000.000000) scale(0.100000,-0.100000)"
fill="#000000" stroke="none">
<path d="M13748 17735 c-2 -1 -32 -5 -68 -8 -36 -4 -76 -9 -90 -11 -231 -48
-393 -132 -542 -281 -150 -151 -255 -342 -284 -520 -13 -80 -7 -235 11 -315 3
-14 8 -36 11 -50 3 -14 14 -61 25 -105 28 -108 34 -156 33 -250 0 -69 -5 -89
-32 -147 -37 -77 -116 -168 -177 -203 -58 -34 -137 -48 -205 -35 -54 10 -160
58 -160 72 0 12 -145 198 -192 248 -167 173 -371 302 -605 380 -65 21 -129 41
-143 44 -129 28 -224 45 -269 51 -30 4 -61 8 -70 10 -9 2 -48 6 -86 9 -39 4
-86 9 -105 11 -36 4 -102 10 -250 20 -47 3 -105 8 -130 10 -25 2 -85 7 -134
10 -48 4 -96 8 -105 10 -9 1 -47 6 -86 10 -38 4 -77 9 -86 10 -9 2 -40 6 -70
10 -175 21 -374 70 -602 146 -82 27 -159 51 -170 53 -12 2 -40 9 -62 15 -22 6
-58 13 -80 16 -22 3 -46 8 -54 11 -50 17 -303 24 -416 11 -201 -22 -406 -98
-570 -213 -86 -60 -193 -161 -241 -225 -20 -27 -42 -49 -49 -49 -7 0 -15 -3
-17 -7 -1 -5 -30 -28 -63 -53 -83 -62 -370 -290 -485 -386 -53 -43 -118 -97
-145 -119 -28 -22 -57 -46 -65 -52 -68 -56 -238 -184 -295 -223 -183 -123
-242 -145 -395 -153 -158 -8 -363 -58 -496 -119 -35 -16 -46 -29 -69 -80 -31
-68 -35 -148 -12 -215 21 -63 84 -148 155 -214 116 -105 383 -269 462 -284 47
-8 119 15 172 56 44 33 187 175 333 329 194 206 336 304 695 483 222 111 257
126 495 224 208 85 354 138 548 198 149 46 159 48 267 60 136 14 138 14 177
-14 203 -142 598 -304 1058 -432 22 -6 60 -17 85 -24 25 -7 68 -19 95 -25 28
-7 54 -16 59 -21 20 -17 -167 -532 -286 -789 -11 -25 -36 -79 -55 -120 -42
-91 -215 -436 -253 -505 -15 -27 -42 -77 -60 -110 -87 -162 -276 -481 -435
-735 -75 -121 -404 -620 -415 -630 -3 -3 -29 -41 -59 -85 -30 -44 -63 -91 -74
-105 -22 -29 -85 -118 -107 -150 -8 -12 -43 -60 -77 -105 -34 -46 -64 -93 -68
-104 -5 -16 -117 -89 -170 -110 -5 -2 -43 -28 -82 -58 -159 -117 -292 -275
-382 -452 -45 -90 -95 -226 -107 -291 -3 -14 -10 -45 -15 -70 -40 -177 -45
-464 -13 -695 3 -16 7 -47 10 -68 3 -21 13 -76 23 -124 l19 -86 -30 -66 c-59
-130 -66 -147 -111 -261 -73 -188 -179 -516 -193 -600 -3 -14 -8 -34 -11 -45
-9 -28 -46 -204 -58 -278 -3 -17 -7 -43 -10 -57 -2 -14 -7 -45 -10 -70 -3 -25
-8 -52 -10 -60 -2 -8 -6 -37 -10 -65 -3 -27 -17 -113 -30 -190 -14 -77 -27
-158 -31 -180 -3 -22 -8 -43 -10 -46 -2 -4 -6 -24 -10 -45 -3 -22 -21 -105
-40 -185 l-35 -146 -67 -68 c-136 -138 -246 -206 -450 -277 -149 -52 -297
-122 -398 -190 -135 -90 -326 -293 -449 -478 -16 -25 -33 -47 -36 -50 -6 -4
-110 -164 -214 -325 -380 -592 -607 -861 -900 -1066 -54 -38 -170 -102 -190
-105 -6 -1 -37 -5 -68 -8 -65 -8 -175 -41 -258 -79 -54 -24 -110 -35 -214 -42
-166 -12 -196 -17 -250 -39 -83 -35 -114 -103 -101 -224 32 -296 321 -769 578
-943 34 -24 71 -52 81 -64 38 -42 89 -170 142 -354 93 -326 142 -429 260 -546
106 -105 237 -161 450 -191 22 -3 56 -9 75 -13 70 -15 256 -19 365 -8 93 9
118 14 197 37 58 18 67 24 77 51 14 42 14 167 0 210 -28 82 -93 133 -185 144
-104 13 -160 40 -236 111 -63 60 -81 84 -124 160 -48 85 -60 116 -89 223 -39
147 -29 297 26 387 45 74 132 261 160 345 17 51 33 123 36 161 l6 69 -48 46
c-67 64 -162 106 -249 111 l-68 4 233 230 c446 440 587 570 744 688 33 25 62
48 65 51 34 40 481 324 528 335 12 4 22 10 22 14 0 4 8 10 18 13 9 3 58 23
107 45 85 37 233 92 475 177 238 83 436 155 452 165 10 5 23 10 29 10 6 0 60
25 121 55 163 80 236 141 351 287 156 201 457 640 598 876 58 96 193 331 233
406 88 163 266 526 266 542 0 3 11 30 25 60 74 161 195 514 219 634 2 14 12
55 22 92 19 77 7 72 139 50 76 -14 122 -19 215 -27 41 -3 90 -8 107 -11 145
-19 577 -22 1528 -10 351 5 536 4 530 -2 -5 -6 -46 -22 -90 -37 -146 -50 -361
-168 -474 -261 -95 -77 -127 -107 -216 -197 -55 -56 -127 -136 -160 -177 -88
-110 -195 -239 -236 -285 -220 -245 -328 -352 -469 -466 -58 -47 -89 -68 -195
-135 -75 -47 -185 -81 -257 -78 -72 2 -90 12 -54 31 20 11 26 21 26 48 0 98
-214 159 -530 151 -207 -6 -255 -18 -292 -74 -65 -98 -97 -254 -96 -472 0
-142 17 -333 36 -418 21 -91 -6 -154 -162 -377 -112 -158 -207 -385 -241 -575
-27 -146 -28 -351 -2 -465 60 -264 192 -456 341 -496 85 -23 190 6 255 72 54
54 72 101 77 202 4 100 7 125 31 267 43 262 153 522 288 678 43 49 67 66 185
124 166 83 274 153 345 224 61 61 79 105 64 158 -12 44 -84 142 -132 180 -20
16 -37 33 -37 37 0 4 80 56 178 117 335 206 501 301 887 508 301 161 790 388
1040 483 33 13 69 27 80 31 22 9 44 16 60 20 6 1 15 5 20 10 24 19 413 139
535 166 104 23 113 25 122 30 5 3 21 8 36 10 45 8 252 93 342 141 362 193 559
474 563 803 1 89 -10 150 -44 250 -68 204 -209 411 -435 636 -377 376 -920
699 -1521 903 -67 23 -130 44 -140 46 -10 3 -58 16 -108 30 -49 15 -101 28
-115 31 -14 3 -41 9 -60 14 -62 16 -283 59 -335 65 -27 3 -59 8 -70 10 -11 2
-49 7 -85 10 -36 4 -76 8 -90 11 -64 10 -285 18 -483 17 l-217 -1 -6 23 c-8
31 3 126 16 139 5 5 10 17 10 26 0 28 95 163 161 229 129 128 279 229 624 422
116 64 226 126 245 138 19 11 42 24 50 28 8 3 39 21 68 40 29 18 54 33 57 33
5 0 59 34 205 128 166 107 318 237 422 360 32 39 42 44 90 49 44 4 134 21 198
37 20 5 151 51 170 59 10 5 19 -2 28 -23 24 -52 168 -262 255 -370 95 -118
287 -312 392 -396 168 -133 351 -239 501 -290 194 -65 417 -42 629 63 73 37
227 141 281 190 145 131 229 221 330 354 70 93 174 219 214 259 8 8 44 49 80
90 36 41 74 84 85 96 11 11 54 58 95 104 234 260 572 598 764 762 78 67 231
178 246 178 30 0 118 49 154 85 62 62 79 113 80 240 1 133 -7 195 -39 300 -68
223 -235 342 -440 314 -72 -10 -172 -57 -217 -102 -40 -40 -60 -105 -51 -166
9 -53 9 -45 -12 -262 -13 -129 -104 -277 -275 -448 -232 -232 -527 -419 -967
-614 -207 -92 -609 -245 -713 -272 -8 -2 -24 -7 -35 -10 -15 -4 -28 5 -51 38
-78 107 -181 295 -269 491 -14 32 -69 154 -121 271 -52 116 -117 254 -144 305
-34 64 -48 102 -45 119 2 14 7 112 10 216 2 105 7 199 9 210 2 11 7 41 10 67
26 192 137 427 278 592 l34 38 44 -25 c25 -14 90 -51 145 -82 237 -134 475
-237 575 -249 39 -4 47 -1 75 27 62 63 136 211 219 440 37 103 107 324 121
385 3 10 14 52 25 95 11 43 34 139 49 215 28 129 33 158 47 250 3 20 7 48 10
62 4 23 7 51 19 175 8 77 8 243 0 310 -9 83 -42 183 -73 225 -133 179 -418
317 -751 365 -45 7 -258 15 -263 10z"/>
</g>
</svg>
